<?xml version="1.0" encoding="UTF-8" standalone="no"?>
<svg
   xmlns:dc="http://purl.org/dc/elements/1.1/"
   xmlns:cc="http://creativecommons.org/ns#"
   xmlns:rdf="http://www.w3.org/1999/02/22-rdf-syntax-ns#"
   xmlns:svg="http://www.w3.org/2000/svg"
   xmlns="http://www.w3.org/2000/svg"
   xmlns:xlink="http://www.w3.org/1999/xlink"
   xmlns:sodipodi="http://sodipodi.sourceforge.net/DTD/sodipodi-0.dtd"
   xmlns:inkscape="http://www.inkscape.org/namespaces/inkscape"
   width="24mm"
   height="24mm"
   viewBox="0 0 24 24"
   version="1.1"
   id="svg8"
   inkscape:version="1.0 (1.0+r73+1)"
   sodipodi:docname="magnotefy.svg"
   inkscape:export-filename="/home/dimitri/Coding/Flutter/magnotefy_repo/assets/appicon/magnotefy_icon_ios.png"
   inkscape:export-xdpi="1083.7333"
   inkscape:export-ydpi="1083.7333">
  <defs
     id="defs2">
    <linearGradient
       inkscape:collect="always"
       id="linearGradient1566">
      <stop
         style="stop-color:#ffffff;stop-opacity:0.1"
         offset="0"
         id="stop1562" />
      <stop
         style="stop-color:#ffffff;stop-opacity:0"
         offset="1"
         id="stop1564" />
    </linearGradient>
    <linearGradient
       inkscape:collect="always"
       id="linearGradient967">
      <stop
         style="stop-color:#1a55b8;stop-opacity:1"
         offset="0"
         id="stop963" />
      <stop
         style="stop-color:#69b4ff;stop-opacity:1"
         offset="1"
         id="stop965" />
    </linearGradient>
    <linearGradient
       inkscape:collect="always"
       xlink:href="#linearGradient967"
       id="linearGradient969"
       x1="11.338582"
       y1="79.370079"
       x2="79.370079"
       y2="11.338583"
       gradientUnits="userSpaceOnUse" />
    <filter
       inkscape:collect="always"
       style="color-interpolation-filters:sRGB"
       id="filter1552"
       x="-0.055200008"
       width="1.1104"
       y="-0.055199992"
       height="1.1104">
      <feGaussianBlur
         inkscape:collect="always"
         stdDeviation="1.5647185"
         id="feGaussianBlur1554" />
    </filter>
    <radialGradient
       inkscape:collect="always"
       xlink:href="#linearGradient1566"
       id="radialGradient1568"
       cx="1.5000008"
       cy="271.5"
       fx="1.5000008"
       fy="271.5"
       r="11.999999"
       gradientUnits="userSpaceOnUse"
       gradientTransform="matrix(-2.1425137e-5,2.0000006,-2.0000001,3.2402161e-8,546.00003,272.99999)" />
    <clipPath
       clipPathUnits="userSpaceOnUse"
       id="clipPath1578">
      <path
         id="path1580"
         d="m 6.4998616,275.99982 a 3.4999999,3.4999999 0 0 0 -3.5000446,3.50004 v 11.00036 a 3.4999999,3.4999999 0 0 0 3.5000446,3.49953 h 3.5000448 6.0001506 a 0.99999993,0.99999993 0 0 0 0.999939,-0.99994 0.99999993,0.99999993 0 0 0 -0.999939,-0.99994 H 9.9999064 7.0000895 A 1.9999997,1.9999997 0 0 1 5.0002117,290 v -9.99991 a 1.9999997,1.9999997 0 0 1 1.9998778,-1.99988 h 9.9999065 a 1.9999997,1.9999997 0 0 1 1.999878,1.99988 v 7.00009 0.0341 0.17311 1.99109 0.3483 a 0.41775391,0.41775391 0 0 1 0.0021,0.0377 0.41775391,0.41775391 0 0 1 -0.0021,0.0398 0.41775391,0.41775391 0 0 1 -0.415479,0.37775 0.41775391,0.41775391 0 0 1 -0.280086,-0.108 0.41775391,0.41775391 0 0 1 -0.0047,-0.004 0.41775391,0.41775391 0 0 1 -0.0217,-0.0222 l -2.760038,-2.76004 0.0021,-0.002 -0.211356,-0.21135 a 4.5,4.5 0 0 0 0.69143,-2.39417 4.5,4.5 0 0 0 -4.499983,-4.49998 4.5,4.5 0 0 0 -4.4999837,4.49998 4.5,4.5 0 0 0 4.4999837,4.49998 4.5,4.5 0 0 0 2.391585,-0.69453 l 2.952275,2.95228 0.001,-10e-4 a 2.4155646,2.4155646 0 0 0 1.739429,0.74311 2.4155646,2.4155646 0 0 0 2.415357,-2.41536 2.4155646,2.4155646 0 0 0 -5.3e-4,-0.0103 h 5.3e-4 v -10.07433 a 3.4999999,3.4999999 0 0 0 -3.499524,-3.50004 z m 5.0002114,6.00015 a 2.4999997,2.4999997 0 0 1 2.500106,2.5001 2.4999997,2.4999997 0 0 1 -2.500106,2.50011 2.4999997,2.4999997 0 0 1 -2.5001056,-2.50011 2.4999997,2.4999997 0 0 1 2.5001056,-2.5001 z"
         style="opacity:1;vector-effect:none;fill:#ff0000;fill-opacity:1;stroke:none;stroke-width:2;stroke-linecap:round;stroke-linejoin:round;stroke-miterlimit:4;stroke-dasharray:none;stroke-dashoffset:0;stroke-opacity:1"
         inkscape:connector-curvature="0" />
    </clipPath>
  </defs>
  <sodipodi:namedview
     id="base"
     pagecolor="#ffffff"
     bordercolor="#666666"
     borderopacity="1.0"
     inkscape:pageopacity="0.0"
     inkscape:pageshadow="2"
     inkscape:zoom="4"
     inkscape:cx="27.706923"
     inkscape:cy="46.782746"
     inkscape:document-units="mm"
     inkscape:current-layer="layer1"
     showgrid="false"
     inkscape:snap-smooth-nodes="true"
     inkscape:object-paths="true"
     inkscape:snap-intersection-paths="true"
     inkscape:snap-midpoints="true"
     inkscape:snap-grids="true"
     inkscape:window-width="1366"
     inkscape:window-height="704"
     inkscape:window-x="0"
     inkscape:window-y="27"
     inkscape:window-maximized="1"
     inkscape:document-rotation="0">
    <inkscape:grid
       type="xygrid"
       id="grid815"
       units="mm"
       spacingx="0.99999997"
       spacingy="0.99999997" />
  </sodipodi:namedview>
  <metadata
     id="metadata5">
    <rdf:RDF>
      <cc:Work
         rdf:about="">
        <dc:format>image/svg+xml</dc:format>
        <dc:type
           rdf:resource="http://purl.org/dc/dcmitype/StillImage" />
        <dc:title />
      </cc:Work>
    </rdf:RDF>
  </metadata>
  <g
     inkscape:label="Layer 1"
     inkscape:groupmode="layer"
     id="layer1"
     transform="translate(0,-273)">
    <rect
       style="opacity:1;vector-effect:none;fill:#ffffff;fill-opacity:1;stroke:none;stroke-width:2;stroke-linecap:round;stroke-linejoin:round;stroke-miterlimit:4;stroke-dasharray:none;stroke-dashoffset:0;stroke-opacity:1"
       id="rect998"
       width="23.999998"
       height="24"
       x="0"
       y="273" />
    <path
       id="path973"
       transform="matrix(0.26458333,0,0,0.26458333,0.24977928,273.50065)"
       d="M 24.566406,11.337891 A 13.228346,13.228346 0 0 0 11.337891,24.566406 v 41.576172 a 13.228346,13.228346 0 0 0 13.228515,13.226563 h 13.228516 22.677734 a 3.7795273,3.7795273 0 0 0 3.779297,-3.779297 3.7795273,3.7795273 0 0 0 -3.779297,-3.779297 H 37.794922 26.457031 A 7.5590539,7.5590539 0 0 1 18.898438,64.251953 V 26.457031 a 7.5590539,7.5590539 0 0 1 7.558593,-7.558593 h 37.794922 a 7.5590539,7.5590539 0 0 1 7.558594,7.558593 v 26.457031 0.128907 0.654297 7.52539 1.316406 a 1.5789124,1.5789124 0 0 1 0.0078,0.142579 1.5789124,1.5789124 0 0 1 -0.0078,0.15039 1.5789124,1.5789124 0 0 1 -1.570313,1.427735 1.5789124,1.5789124 0 0 1 -1.058593,-0.408204 1.5789124,1.5789124 0 0 1 -0.01758,-0.01562 1.5789124,1.5789124 0 0 1 -0.08203,-0.08398 l -10.43164,-10.431641 0.0078,-0.0078 -0.798828,-0.798828 a 17.007874,17.007874 0 0 0 2.613281,-9.048828 17.007874,17.007874 0 0 0 -17.007812,-17.007813 17.007874,17.007874 0 0 0 -17.007813,17.007813 17.007874,17.007874 0 0 0 17.007813,17.007812 17.007874,17.007874 0 0 0 9.039062,-2.625 l 11.158203,11.158203 0.0039,-0.0039 a 9.1296932,9.1296932 0 0 0 6.574218,2.808594 9.1296932,9.1296932 0 0 0 9.128907,-9.128906 9.1296932,9.1296932 0 0 0 -0.002,-0.03906 h 0.002 V 24.566406 A 13.228346,13.228346 0 0 0 66.142578,11.337891 Z m 18.898438,22.677734 a 9.4488179,9.4488179 0 0 1 9.449218,9.449219 9.4488179,9.4488179 0 0 1 -9.449218,9.449218 9.4488179,9.4488179 0 0 1 -9.449219,-9.449218 9.4488179,9.4488179 0 0 1 9.449219,-9.449219 z"
       style="opacity:0.2;vector-effect:none;fill:#000000;fill-opacity:1;stroke:none;stroke-width:7.55905533;stroke-linecap:round;stroke-linejoin:round;stroke-miterlimit:4;stroke-dasharray:none;stroke-dashoffset:0;stroke-opacity:1;filter:url(#filter1552)"
       inkscape:connector-curvature="0" />
    <path
       style="opacity:1;vector-effect:none;fill:url(#linearGradient969);fill-opacity:1;stroke:none;stroke-width:7.55905533;stroke-linecap:round;stroke-linejoin:round;stroke-miterlimit:4;stroke-dasharray:none;stroke-dashoffset:0;stroke-opacity:1"
       d="M 24.566406 11.337891 A 13.228346 13.228346 0 0 0 11.337891 24.566406 L 11.337891 66.142578 A 13.228346 13.228346 0 0 0 24.566406 79.369141 L 37.794922 79.369141 L 60.472656 79.369141 A 3.7795273 3.7795273 0 0 0 64.251953 75.589844 A 3.7795273 3.7795273 0 0 0 60.472656 71.810547 L 37.794922 71.810547 L 26.457031 71.810547 A 7.5590539 7.5590539 0 0 1 18.898438 64.251953 L 18.898438 26.457031 A 7.5590539 7.5590539 0 0 1 26.457031 18.898438 L 64.251953 18.898438 A 7.5590539 7.5590539 0 0 1 71.810547 26.457031 L 71.810547 52.914062 L 71.810547 53.042969 L 71.810547 53.697266 L 71.810547 61.222656 L 71.810547 62.539062 A 1.5789124 1.5789124 0 0 1 71.818359 62.681641 A 1.5789124 1.5789124 0 0 1 71.810547 62.832031 A 1.5789124 1.5789124 0 0 1 70.240234 64.259766 A 1.5789124 1.5789124 0 0 1 69.181641 63.851562 A 1.5789124 1.5789124 0 0 1 69.164062 63.835938 A 1.5789124 1.5789124 0 0 1 69.082031 63.751953 L 58.650391 53.320312 L 58.658203 53.3125 L 57.859375 52.513672 A 17.007874 17.007874 0 0 0 60.472656 43.464844 A 17.007874 17.007874 0 0 0 43.464844 26.457031 A 17.007874 17.007874 0 0 0 26.457031 43.464844 A 17.007874 17.007874 0 0 0 43.464844 60.472656 A 17.007874 17.007874 0 0 0 52.503906 57.847656 L 63.662109 69.005859 L 63.666016 69.001953 A 9.1296932 9.1296932 0 0 0 70.240234 71.810547 A 9.1296932 9.1296932 0 0 0 79.369141 62.681641 A 9.1296932 9.1296932 0 0 0 79.367188 62.642578 L 79.369141 62.642578 L 79.369141 24.566406 A 13.228346 13.228346 0 0 0 66.142578 11.337891 L 24.566406 11.337891 z M 43.464844 34.015625 A 9.4488179 9.4488179 0 0 1 52.914062 43.464844 A 9.4488179 9.4488179 0 0 1 43.464844 52.914062 A 9.4488179 9.4488179 0 0 1 34.015625 43.464844 A 9.4488179 9.4488179 0 0 1 43.464844 34.015625 z "
       id="path914"
       transform="matrix(0.26458333,0,0,0.26458333,0,273)" />
    <path
       style="opacity:0.2;vector-effect:none;fill:#ffffff;fill-opacity:1;stroke:none;stroke-width:7.55905533;stroke-linecap:round;stroke-linejoin:round;stroke-miterlimit:4;stroke-dasharray:none;stroke-dashoffset:0;stroke-opacity:1"
       d="M 24.566406 11.337891 A 13.228346 13.228346 0 0 0 11.337891 24.566406 L 11.337891 25.039062 A 13.228346 13.228346 0 0 1 24.566406 11.810547 L 66.142578 11.8125 A 13.228346 13.228346 0 0 1 79.369141 25.041016 L 79.369141 24.566406 A 13.228346 13.228346 0 0 0 66.142578 11.337891 L 24.566406 11.337891 z M 43.464844 26.457031 A 17.007874 17.007874 0 0 0 26.457031 43.464844 A 17.007874 17.007874 0 0 0 26.466797 43.662109 A 17.007874 17.007874 0 0 1 43.464844 26.931641 A 17.007874 17.007874 0 0 1 60.462891 43.755859 A 17.007874 17.007874 0 0 0 60.472656 43.464844 A 17.007874 17.007874 0 0 0 43.464844 26.457031 z M 52.904297 43.660156 A 9.4488178 9.4488178 0 0 1 43.464844 52.914062 A 9.4488178 9.4488178 0 0 1 34.025391 43.742188 A 9.4488178 9.4488178 0 0 0 34.015625 43.9375 A 9.4488178 9.4488178 0 0 0 43.464844 53.386719 A 9.4488178 9.4488178 0 0 0 52.914062 43.9375 A 9.4488178 9.4488178 0 0 0 52.904297 43.660156 z M 58.029297 52.683594 A 17.007874 17.007874 0 0 1 57.859375 52.988281 L 58.658203 53.787109 L 58.650391 53.794922 L 69.082031 64.226562 A 1.5789124 1.5789124 0 0 0 69.164062 64.310547 A 1.5789124 1.5789124 0 0 0 69.181641 64.324219 A 1.5789124 1.5789124 0 0 0 70.240234 64.732422 A 1.5789124 1.5789124 0 0 0 71.810547 63.304688 A 1.5789124 1.5789124 0 0 0 71.818359 63.154297 A 1.5789124 1.5789124 0 0 0 71.810547 63.011719 L 71.810547 62.832031 A 1.5789124 1.5789124 0 0 1 70.240234 64.259766 A 1.5789124 1.5789124 0 0 1 69.181641 63.851562 A 1.5789124 1.5789124 0 0 1 69.164062 63.835938 A 1.5789124 1.5789124 0 0 1 69.082031 63.751953 L 58.650391 53.320312 L 58.658203 53.3125 L 58.029297 52.683594 z M 18.898438 64.251953 L 18.898438 64.724609 A 7.559054 7.559054 0 0 0 26.457031 72.283203 L 37.794922 72.283203 L 60.472656 72.283203 A 3.7795273 3.7795273 0 0 1 64.242188 75.857422 A 3.7795273 3.7795273 0 0 0 64.251953 75.589844 A 3.7795273 3.7795273 0 0 0 60.472656 71.810547 L 37.794922 71.810547 L 26.457031 71.810547 A 7.5590538 7.5590538 0 0 1 18.898438 64.251953 z "
       transform="matrix(0.26458333,0,0,0.26458333,0,273)"
       id="path1427" />
    <path
       style="opacity:0.2;vector-effect:none;fill:#000000;fill-opacity:1;stroke:none;stroke-width:7.55905533;stroke-linecap:round;stroke-linejoin:round;stroke-miterlimit:4;stroke-dasharray:none;stroke-dashoffset:0;stroke-opacity:1"
       d="M 26.457031 18.427734 A 7.559054 7.559054 0 0 0 18.898438 25.986328 L 18.898438 26.457031 A 7.5590538 7.5590538 0 0 1 26.457031 18.898438 L 64.251953 18.898438 A 7.5590538 7.5590538 0 0 1 71.810547 26.457031 L 71.810547 25.986328 A 7.559054 7.559054 0 0 0 64.251953 18.427734 L 26.457031 18.427734 z M 43.464844 33.544922 A 9.4488178 9.4488178 0 0 0 34.015625 42.994141 A 9.4488178 9.4488178 0 0 0 34.025391 43.269531 A 9.4488178 9.4488178 0 0 1 43.464844 34.015625 A 9.4488178 9.4488178 0 0 1 52.904297 43.189453 A 9.4488178 9.4488178 0 0 0 52.914062 42.994141 A 9.4488178 9.4488178 0 0 0 43.464844 33.544922 z M 26.466797 43.191406 A 17.007874 17.007874 0 0 0 26.457031 43.464844 A 17.007874 17.007874 0 0 0 43.464844 60.472656 A 17.007874 17.007874 0 0 0 52.503906 57.847656 L 63.662109 69.005859 L 63.666016 69.001953 A 9.1296931 9.1296931 0 0 0 70.240234 71.810547 A 9.1296931 9.1296931 0 0 0 79.369141 62.681641 A 9.1296931 9.1296931 0 0 0 79.367188 62.642578 L 79.369141 62.642578 L 79.369141 62.210938 A 9.129693 9.129693 0 0 1 70.240234 71.339844 A 9.129693 9.129693 0 0 1 63.666016 68.53125 L 63.662109 68.535156 L 52.503906 57.376953 A 17.007874 17.007874 0 0 1 43.464844 60.001953 A 17.007874 17.007874 0 0 1 26.466797 43.191406 z M 79.369141 62.210938 L 79.369141 62.171875 L 79.367188 62.171875 A 9.129693 9.129693 0 0 1 79.369141 62.210938 z M 60.462891 43.283203 A 17.007874 17.007874 0 0 1 57.859375 52.042969 L 58.029297 52.212891 A 17.007874 17.007874 0 0 0 60.472656 43.464844 A 17.007874 17.007874 0 0 0 60.462891 43.283203 z M 71.810547 62.068359 L 71.810547 62.361328 A 1.5789124 1.5789124 0 0 0 71.818359 62.210938 A 1.5789124 1.5789124 0 0 0 71.810547 62.068359 z M 11.337891 65.671875 L 11.337891 66.142578 A 13.228346 13.228346 0 0 0 24.566406 79.369141 L 37.794922 79.369141 L 60.472656 79.369141 A 3.7795273 3.7795273 0 0 0 64.251953 75.589844 A 3.7795273 3.7795273 0 0 0 64.242188 75.390625 A 3.7795273 3.7795273 0 0 1 60.472656 78.898438 L 37.794922 78.898438 L 24.566406 78.898438 A 13.228346 13.228346 0 0 1 11.337891 65.671875 z "
       transform="matrix(0.26458333,0,0,0.26458333,0,273)"
       id="path1431" />
    <rect
       style="opacity:1;vector-effect:none;fill:url(#radialGradient1568);fill-opacity:1;stroke:none;stroke-width:2;stroke-linecap:round;stroke-linejoin:round;stroke-miterlimit:4;stroke-dasharray:none;stroke-dashoffset:0;stroke-opacity:1"
       id="rect1560"
       width="23.999998"
       height="23.999998"
       x="0"
       y="273"
       clip-path="url(#clipPath1578)" />
  </g>
</svg>
